# xmcd
#
# Track frame offsets:
#	150
#	17312
#	30377
#	49150
#	75020
#	94352
#	109225
#	129922
#	150247
#	169557
#	182722
#	204162
#	220277
#	238735
#
# Disc length: 3391 seconds
#
# Revision: 1
# Processed by: cddbd v1.5.1PL0 Copyright (c) Steve Scherf et al.
# Submitted via: CDex 1.50Beta5
#
DISCID=9d0d3d0e
DTITLE=レベッカ - 元気が出る!CD
DYEAR=1991
DGENRE=Pop
TTITLE0=レベッカ/MOTOR DRIVE
TTITLE1=鷲尾いさ子と鉄骨娘/鉄骨娘
TTITLE2=プリンセス・プリンセス/OH YEAH!
TTITLE3=X/WEEK END
TTITLE4=久保田利伸/GIVE YOU MY LOVE
TTITLE5=結城めぐみ/渚のシンドバッド
TTITLE6=宮沢りえ/Game
TTITLE7=COM-BAD’S/SU・TE・KIにFeel Alright
TTITLE8=米米クラブ/Shake Hip!
TTITLE9=ユニコーン/スターな男
TTITLE10=上々颱風/愛より青い海
TTITLE11=郷ひろみ/裸のビーナス
TTITLE12=山本リンダ/狂わせたいの
TTITLE13=東京スカパラダイスオーケストラ/ホール・イン・ワン
EXTD=
EXTT0=
EXTT1=
EXTT2=
EXTT3=
EXTT4=
EXTT5=
EXTT6=
EXTT7=
EXTT8=
EXTT9=
EXTT10=
EXTT11=
EXTT12=
EXTT13=
PLAYORDER=
